<svg width="25" height="24" viewBox="0 0 25 24" fill="none" xmlns="http://www.w3.org/2000/svg">
<path d="M13.6243 2C14.7493 2.003 15.3203 2.009 15.8133 2.023L16.0073 2.03C16.2313 2.038 16.4523 2.048 16.7193 2.06C17.7833 2.11 18.5093 2.278 19.1463 2.525C19.8063 2.779 20.3623 3.123 20.9183 3.678C21.4268 4.1779 21.8202 4.78259 22.0713 5.45C22.3183 6.087 22.4863 6.813 22.5363 7.878C22.5483 8.144 22.5583 8.365 22.5663 8.59L22.5723 8.784C22.5873 9.276 22.5933 9.847 22.5953 10.972L22.5963 11.718V13.028C22.5987 13.7574 22.5911 14.4868 22.5733 15.216L22.5673 15.41C22.5593 15.635 22.5493 15.856 22.5373 16.122C22.4873 17.187 22.3173 17.912 22.0713 18.55C21.821 19.2178 21.4274 19.8226 20.9183 20.322C20.4182 20.8303 19.8136 21.2238 19.1463 21.475C18.5093 21.722 17.7833 21.89 16.7193 21.94C16.482 21.9512 16.2447 21.9612 16.0073 21.97L15.8133 21.976C15.3203 21.99 14.7493 21.997 13.6243 21.999L12.8783 22H11.5693C10.8395 22.0025 10.1098 21.9949 9.38028 21.977L9.18628 21.971C8.94889 21.962 8.71155 21.9517 8.47428 21.94C7.41028 21.89 6.68428 21.722 6.04628 21.475C5.37895 21.2244 4.7745 20.8308 4.27528 20.322C3.76633 19.8223 3.3725 19.2176 3.12128 18.55C2.87428 17.913 2.70628 17.187 2.65628 16.122C2.64514 15.8847 2.63514 15.6474 2.62628 15.41L2.62128 15.216C2.60285 14.4868 2.59452 13.7574 2.59628 13.028V10.972C2.59349 10.2426 2.60082 9.5132 2.61828 8.784L2.62528 8.59C2.63328 8.365 2.64328 8.144 2.65528 7.878C2.70528 6.813 2.87328 6.088 3.12028 5.45C3.37139 4.7819 3.766 4.17702 4.27628 3.678C4.77537 3.16947 5.37942 2.77599 6.04628 2.525C6.68428 2.278 7.40928 2.11 8.47428 2.06C8.74028 2.048 8.96228 2.038 9.18628 2.03L9.38028 2.024C10.1095 2.00623 10.8389 1.99857 11.5683 2.001L13.6243 2ZM12.5963 7C11.2702 7 9.99843 7.52678 9.06075 8.46447C8.12306 9.40215 7.59628 10.6739 7.59628 12C7.59628 13.3261 8.12306 14.5979 9.06075 15.5355C9.99843 16.4732 11.2702 17 12.5963 17C13.9224 17 15.1941 16.4732 16.1318 15.5355C17.0695 14.5979 17.5963 13.3261 17.5963 12C17.5963 10.6739 17.0695 9.40215 16.1318 8.46447C15.1941 7.52678 13.9224 7 12.5963 7ZM12.5963 9C12.9902 8.99993 13.3804 9.07747 13.7444 9.22817C14.1084 9.37887 14.4391 9.5998 14.7177 9.87833C14.9964 10.1569 15.2174 10.4875 15.3682 10.8515C15.5191 11.2154 15.5967 11.6055 15.5968 11.9995C15.5968 12.3935 15.5193 12.7836 15.3686 13.1476C15.2179 13.5116 14.997 13.8423 14.7185 14.121C14.4399 14.3996 14.1092 14.6206 13.7453 14.7714C13.3813 14.9223 12.9912 14.9999 12.5973 15C11.8016 15 11.0386 14.6839 10.476 14.1213C9.91335 13.5587 9.59728 12.7956 9.59728 12C9.59728 11.2044 9.91335 10.4413 10.476 9.87868C11.0386 9.31607 11.8016 9 12.5973 9M17.8473 5.5C17.5158 5.5 17.1978 5.6317 16.9634 5.86612C16.729 6.10054 16.5973 6.41848 16.5973 6.75C16.5973 7.08152 16.729 7.39946 16.9634 7.63388C17.1978 7.8683 17.5158 8 17.8473 8C18.1788 8 18.4967 7.8683 18.7312 7.63388C18.9656 7.39946 19.0973 7.08152 19.0973 6.75C19.0973 6.41848 18.9656 6.10054 18.7312 5.86612C18.4967 5.6317 18.1788 5.5 17.8473 5.5Z" fill="#FFFBDA"/>
</svg>
