<svg width="25" height="24" viewBox="0 0 25 24" fill="none" xmlns="http://www.w3.org/2000/svg">
<path d="M10.5962 15L15.7862 12L10.5962 9V15ZM22.1562 7.17C22.2862 7.64 22.3762 8.27 22.4362 9.07C22.5062 9.87 22.5362 10.56 22.5362 11.16L22.5962 12C22.5962 14.19 22.4362 15.8 22.1562 16.83C21.9062 17.73 21.3262 18.31 20.4262 18.56C19.9562 18.69 19.0962 18.78 17.7762 18.84C16.4762 18.91 15.2862 18.94 14.1862 18.94L12.5962 19C8.40619 19 5.79619 18.84 4.76619 18.56C3.86619 18.31 3.28619 17.73 3.03619 16.83C2.90619 16.36 2.81619 15.73 2.75619 14.93C2.68619 14.13 2.65619 13.44 2.65619 12.84L2.59619 12C2.59619 9.81 2.75619 8.2 3.03619 7.17C3.28619 6.27 3.86619 5.69 4.76619 5.44C5.23619 5.31 6.09619 5.22 7.41619 5.16C8.71619 5.09 9.90619 5.06 11.0062 5.06L12.5962 5C16.7862 5 19.3962 5.16 20.4262 5.44C21.3262 5.69 21.9062 6.27 22.1562 7.17Z" fill="#FFFBDA"/>
</svg>
