<svg width="100%" height="100%" viewBox="0 0 430 294" fill="none" preserveAspectRatio="none" xmlns="http://www.w3.org/2000/svg">
<path fill-rule="evenodd" clip-rule="evenodd" d="M471 147L470.958 150.669L470.826 154.336L470.602 157.999L470.288 161.654L469.883 165.3L469.388 168.935L468.802 172.555L468.125 176.16L467.359 179.746L466.504 183.312L465.559 186.854L464.525 190.371L463.402 193.861L462.191 197.322L460.892 200.75L459.506 204.145L458.033 207.504L456.473 210.824L454.828 214.104L453.098 217.342L451.283 220.535L449.384 223.682L447.402 226.78L445.337 229.828L443.19 232.823L440.963 235.765L438.655 238.65L436.267 241.478L433.801 244.245L431.257 246.952L428.637 249.595L425.94 252.173L423.169 254.685L420.323 257.129L417.405 259.504L414.414 261.807L411.353 264.038L408.222 266.195L405.023 268.277L401.756 270.282L398.422 272.209L395.023 274.057L391.561 275.825L388.036 277.511L384.449 279.115L380.802 280.636L377.096 282.072L373.332 283.423L369.513 284.687L365.638 285.865L361.71 286.955L357.73 287.957L353.698 288.869L349.618 289.692L345.49 290.425L341.316 291.068L337.096 291.619L332.834 292.079L328.529 292.447L324.184 292.723L319.8 292.908L315.379 293H310.923L306.432 292.908L301.909 292.723L297.355 292.447L292.771 292.079L288.16 291.619L283.523 291.068L278.862 290.425L274.178 289.692L269.473 288.869L264.749 287.957L260.007 286.955L255.249 285.865L250.476 284.687L245.691 283.423L240.895 282.072L236.09 280.636L231.278 279.115L226.46 277.511L221.637 275.825L216.812 274.057L211.987 272.209L207.163 270.282L202.341 268.277L197.524 266.195L192.713 264.038L187.91 261.807L183.117 259.504L178.335 257.129L173.566 254.685L168.812 252.173L164.074 249.595L159.354 246.952L154.654 244.245L149.976 241.478L145.32 238.65L140.69 235.765L136.086 232.823L131.509 229.828L126.963 226.78L122.448 223.682L117.965 220.535L113.517 217.342L109.105 214.104L104.731 210.824L100.396 207.504L96.1018 204.145L91.8497 200.75L87.6414 197.322L83.4783 193.861L79.3619 190.371L75.2938 186.854L71.2753 183.312L67.3078 179.746L63.3928 176.16L59.5317 172.555L55.7258 168.935L51.9765 165.3L48.2852 161.654L44.653 157.999L41.0814 154.336L37.5716 150.669L34.1248 147L30.7423 143.331L27.4252 139.664L24.1748 136.001L20.9922 132.346L17.8786 128.7L14.8349 125.065L11.8624 121.445L8.96204 117.84L6.1349 114.254L3.38196 110.688L0.704209 107.146L-1.8974 103.629L-4.42195 100.139L-6.86854 96.6782L-9.2363 93.2496L-11.5244 89.8549L-13.732 86.4964L-15.8583 83.1761L-17.9027 79.896L-19.8642 76.6584L-21.7423 73.4652L-23.5364 70.3184L-25.2456 67.2201L-26.8695 64.1722L-28.4075 61.1766L-29.859 58.2352L-31.2234 55.3498L-32.5004 52.5224L-33.6895 49.7546L-34.7902 47.0482L-35.8022 44.405L-36.725 41.8266L-37.5584 39.3146L-38.3021 36.8706L-38.9558 34.4962L-39.5193 32.1928L-39.9923 29.962L-40.3747 27.8051L-40.6664 25.7234L-40.8673 23.7184L-40.9772 21.7912L-40.9962 19.9431L-40.9243 18.1753L-40.7614 16.4888L-40.5076 14.8848L-40.1631 13.3642L-39.7279 11.9281L-39.2022 10.5772L-38.5862 9.31251L-37.8801 8.13478L-37.0841 7.04477L-36.1986 6.04315L-35.2239 5.13057L-34.1602 4.30759L-33.008 3.57474L-31.7677 2.93248L-30.4397 2.38121L-29.0245 1.92129L-27.5226 1.55301L-25.9345 1.27659L-24.2609 1.09222L-22.5022 1H-20.6591L-18.7324 1.09222L-16.7225 1.27659L-14.6304 1.55301L-12.4566 1.92129L-10.2021 2.38121L-7.86749 2.93248L-5.45373 3.57474L-2.96165 4.30759L-0.392124 5.13057L2.25393 6.04315L4.97557 7.04477L7.77182 8.13478L10.6417 9.31251L13.5842 10.5772L16.5983 11.9281L19.6828 13.3642L22.8368 14.8848L26.059 16.4888L29.3483 18.1753L32.7036 19.9431L36.1237 21.7912L39.6073 23.7184L43.1533 25.7234L46.7603 27.8051L50.4271 29.962L54.1523 32.1928L57.9347 34.4962L61.7729 36.8706L65.6656 39.3146L69.6113 41.8266L73.6086 44.405L77.6562 47.0482L81.7526 49.7546L85.8963 52.5224L90.0859 55.3498L94.3199 58.2352L98.5968 61.1766L102.915 64.1722L107.273 67.2201L111.669 70.3184L116.102 73.4652L120.571 76.6584L125.072 79.896L129.606 83.1761L134.17 86.4964L138.763 89.8549L143.383 93.2496L148.028 96.6782L152.697 100.139L157.388 103.629L162.1 107.146L166.83 110.688L171.578 114.254L176.341 117.84L181.117 121.445L185.906 125.065L190.705 128.7L195.513 132.346L200.328 136.001L205.148 139.664L209.971 143.331L214.796 147L219.621 150.669L224.445 154.336L229.265 157.999L234.08 161.654L238.889 165.3L243.689 168.935L248.478 172.555L253.256 176.16L258.02 179.746L262.769 183.312L267.501 186.854L272.215 190.371L276.908 193.861L281.579 197.322L286.226 200.75L290.848 204.145L295.443 207.504L300.01 210.824L304.546 214.104L309.05 217.342L313.521 220.535L317.957 223.682L322.357 226.78L326.718 229.828L331.04 232.823L335.32 235.765L339.558 238.65L343.751 241.478L347.899 244.245L352 246.952L356.051 249.595L360.053 252.173L364.003 254.685L367.9 257.129L371.743 259.504L375.53 261.807L379.26 264.038L382.932 266.195L386.544 268.277L390.095 270.282L393.584 272.209L397.01 274.057L400.371 275.825L403.666 277.511L406.894 279.115L410.053 280.636L413.144 282.072L416.164 283.423L419.112 284.687L421.989 285.865L424.791 286.955L427.519 287.957L430.172 288.869L432.748 289.692L435.246 290.425L437.667 291.068L440.008 291.619L442.269 292.079L444.45 292.447L446.549 292.723L448.566 292.908L450.5 293H452.35L454.116 292.908L455.796 292.723L457.392 292.447L458.901 292.079L460.323 291.619L461.659 291.068L462.907 290.425L464.066 289.692L465.137 288.869L466.12 287.957L467.013 286.955L467.816 285.865L468.53 284.687L469.154 283.423L469.687 282.072L470.13 280.636L470.482 279.115L470.743 277.511L470.914 275.825L470.994 274.057L470.982 272.209L470.88 270.282L470.687 268.277L470.403 266.195L470.028 264.038L469.563 261.807L469.007 259.504L468.361 257.129L467.625 254.685L466.799 252.173L465.884 249.595L464.879 246.952L463.786 244.245L462.604 241.478L461.335 238.65L459.978 235.765L458.533 232.823L457.003 229.828L455.386 226.78L453.684 223.682L451.897 220.535L450.026 217.342L448.072 214.104L446.034 210.824L443.915 207.504L441.714 204.145L439.433 200.75L437.072 197.322L434.632 193.861L432.114 190.371L429.519 186.854L426.847 183.312L424.101 179.746L421.28 176.16L418.385 172.555L415.419 168.935L412.381 165.3L409.274 161.654L406.097 157.999L402.852 154.336L399.541 150.669L396.164 147L392.722 143.331L389.218 139.664L385.651 136.001L382.024 132.346L378.338 128.7L374.593 125.065L370.792 121.445L366.936 117.84L363.025 114.254L359.062 110.688L355.048 107.146L350.984 103.629L346.871 100.139L342.712 96.6782L338.508 93.2496L334.259 89.8549L329.968 86.4964L325.637 83.1761L321.266 79.896L316.857 76.6584L312.412 73.4652L307.933 70.3184L303.42 67.2201L298.876 64.1722L294.302 61.1766L289.7 58.2352L285.072 55.3498L280.418 52.5224L275.742 49.7546L271.044 47.0482L266.326 44.405L261.589 41.8266L256.836 39.3146L252.069 36.8706L247.288 34.4962L242.495 32.1928L237.693 29.962L232.883 27.8051L228.066 25.7234L223.245 23.7184L218.421 21.7912L213.595 19.9431L208.77 18.1753L203.948 16.4888L199.129 14.8848L194.316 13.3642L189.51 11.9281L184.714 10.5772L179.928 9.31251L175.154 8.13478L170.395 7.04477L165.651 6.04315L160.925 5.13057L156.219 4.30759L151.533 3.57474L146.87 2.93248L142.23 2.38121L137.617 1.92129L133.032 1.55301L128.475 1.27659L123.949 1.09222L119.456 1H114.996L110.572 1.09222L106.185 1.27659L101.837 1.55301L97.5286 1.92129L93.2623 2.38121L89.0392 2.93248L84.8609 3.57474L80.7288 4.30759L76.6444 5.13057L72.6092 6.04315L68.6245 7.04477L64.6919 8.13478L60.8127 9.31251L56.9882 10.5772L53.2199 11.9281L49.5091 13.3642L45.8571 14.8848L42.2652 16.4888L38.7346 18.1753L35.2667 19.9431L31.8626 21.7912L28.5236 23.7184L25.2508 25.7234L22.0455 27.8051L18.9087 29.962L15.8416 32.1928L12.8453 34.4962L9.92074 36.8706L7.06908 39.3146L4.2913 41.8266L1.58838 44.405L-1.03871 47.0482L-3.58905 49.7546L-6.06173 52.5224L-8.45586 55.3498L-10.7706 58.2352L-13.0051 61.1766L-15.1586 64.1722L-17.2304 67.2201L-19.2196 70.3184L-21.1256 73.4652L-22.9477 76.6584L-24.6853 79.896L-26.3377 83.1761L-27.9044 86.4964L-29.3848 89.8549L-30.7783 93.2496L-32.0845 96.6782L-33.303 100.139L-34.4332 103.629L-35.4747 107.146L-36.4273 110.688L-37.2906 114.254L-38.0642 117.84L-38.7479 121.445L-39.3415 125.065L-39.8447 128.7L-40.2573 132.346L-40.5793 136.001L-40.8104 139.664L-40.9507 143.331L-41 147L-40.9584 150.669L-40.8258 154.336L-40.6023 157.999L-40.288 161.654L-39.883 165.3L-39.3875 168.935L-38.8016 172.555L-38.1255 176.16L-37.3594 179.746L-36.5037 183.312L-35.5587 186.854L-34.5246 190.371L-33.4019 193.861L-32.1909 197.322L-30.8921 200.75L-29.5059 204.145L-28.0328 207.504L-26.4734 210.824L-24.8282 214.104L-23.0978 217.342L-21.2828 220.535L-19.3839 223.682L-17.4016 226.78L-15.3369 229.828L-13.1902 232.823L-10.9625 235.765L-8.65452 238.65L-6.26706 241.478L-3.80099 244.245L-1.25718 246.952L1.36346 249.595L4.06001 252.173L6.83151 254.685L9.67697 257.129L12.5954 259.504L15.5857 261.807L18.6469 264.038L21.7778 266.195L24.9774 268.277L28.2445 270.282L31.5779 272.209L34.9766 274.057L38.4391 275.825L41.9645 277.511L45.5513 279.115L49.1982 280.636L52.9042 282.072L56.6677 283.423L60.4874 284.687L64.362 285.865L68.2902 286.955L72.2705 287.957L76.3015 288.869L80.3818 289.692L84.5099 290.425L88.6844 291.068L92.9038 291.619L97.1665 292.079L101.471 292.447L105.816 292.723L110.2 292.908L114.621 293H119.077L123.568 292.908L128.091 292.723L132.645 292.447L137.229 292.079L141.84 291.619L146.477 291.068L151.138 290.425L155.822 289.692L160.527 288.869L165.251 287.957L169.993 286.955L174.751 285.865L179.524 284.687L184.309 283.423L189.105 282.072L193.91 280.636L198.722 279.115L203.541 277.511L208.363 275.825L213.188 274.057L218.013 272.209L222.837 270.282L227.659 268.277L232.476 266.195L237.287 264.038L242.09 261.807L246.883 259.504L251.665 257.129L256.434 254.685L261.188 252.173L265.926 249.595L270.646 246.952L275.346 244.245L280.024 241.478L284.68 238.65L289.31 235.765L293.914 232.823L298.491 229.828L303.037 226.78L307.553 223.682L312.035 220.535L316.483 217.342L320.895 214.104L325.269 210.824L329.604 207.504L333.898 204.145L338.15 200.75L342.359 197.322L346.522 193.861L350.638 190.371L354.706 186.854L358.725 183.312L362.692 179.746L366.607 176.16L370.468 172.555L374.274 168.935L378.023 165.3L381.715 161.654L385.347 157.999L388.919 154.336L392.428 150.669L395.875 147L399.258 143.331L402.575 139.664L405.825 136.001L409.008 132.346L412.121 128.7L415.165 125.065L418.138 121.445L421.038 117.84L423.865 114.254L426.618 110.688L429.296 107.146L431.897 103.629L434.422 100.139L436.869 96.6782L439.236 93.2496L441.524 89.8549L443.732 86.4964L445.858 83.1761L447.903 79.896L449.864 76.6584L451.742 73.4652L453.536 70.3184L455.246 67.2201L456.87 64.1722L458.407 61.1766L459.859 58.2352L461.223 55.3498L462.5 52.5224L463.69 49.7546L464.79 47.0482L465.802 44.405L466.725 41.8266L467.558 39.3146L468.302 36.8706L468.956 34.4962L469.519 32.1928L469.992 29.962L470.375 27.8051L470.666 25.7234L470.867 23.7184L470.977 21.7912L470.996 19.9431L470.924 18.1753L470.761 16.4888L470.508 14.8848L470.163 13.3642L469.728 11.9281L469.202 10.5772L468.586 9.31251L467.88 8.13478L467.084 7.04477L466.199 6.04315L465.224 5.13057L464.16 4.30759L463.008 3.57474L461.768 2.93248L460.44 2.38121L459.025 1.92129L457.523 1.55301L455.935 1.27659L454.261 1.09222L452.502 1H450.659L448.732 1.09222L446.723 1.27659L444.63 1.55301L442.457 1.92129L440.202 2.38121L437.868 2.93248L435.454 3.57474L432.962 4.30759L430.392 5.13057L427.746 6.04315L425.024 7.04477L422.228 8.13478L419.358 9.31251L416.416 10.5772L413.402 11.9281L410.317 13.3642L407.163 14.8848L403.941 16.4888L400.652 18.1753L397.296 19.9431L393.876 21.7912L390.393 23.7184L386.847 25.7234L383.24 27.8051L379.573 29.962L375.848 32.1928L372.065 34.4962L368.227 36.8706L364.334 39.3146L360.389 41.8266L356.391 44.405L352.344 47.0482L348.247 49.7546L344.104 52.5224L339.914 55.3498L335.68 58.2352L331.403 61.1766L327.085 64.1722L322.727 67.2201L318.331 70.3184L313.898 73.4652L309.429 76.6584L304.928 79.896L300.394 83.1761L295.83 86.4964L291.237 89.8549L286.617 93.2496L281.972 96.6782L277.303 100.139L272.612 103.629L267.9 107.146L263.17 110.688L258.422 114.254L253.659 117.84L248.883 121.445L244.094 125.065L239.295 128.7L234.487 132.346L229.672 136.001L224.852 139.664L220.029 143.331L215.204 147L210.379 150.669L205.555 154.336L200.735 157.999L195.92 161.654L191.111 165.3L186.311 168.935L181.522 172.555L176.744 176.16L171.98 179.746L167.231 183.312L162.499 186.854L157.785 190.371L153.092 193.861L148.421 197.322L143.774 200.75L139.152 204.145L134.557 207.504L129.99 210.824L125.454 214.104L120.95 217.342L116.479 220.535L112.043 223.682L107.643 226.78L103.282 229.828L98.9601 232.823L94.6797 235.765L90.442 238.65L86.2486 241.478L82.1009 244.245L78.0005 246.952L73.9487 249.595L69.947 252.173L65.9969 254.685L62.0997 257.129L58.2569 259.504L54.4697 261.807L50.7396 264.038L47.0678 266.195L43.4557 268.277L39.9045 270.282L36.4156 272.209L32.9901 274.057L29.6293 275.825L26.3343 277.511L23.1064 279.115L19.9466 280.636L16.8562 282.072L13.8361 283.423L10.8875 284.687L8.01148 285.865L5.20896 286.955L2.48098 287.957L-0.171499 288.869L-2.74752 289.692L-5.24618 290.425L-7.66659 291.068L-10.0079 291.619L-12.2692 292.079L-14.4498 292.447L-16.5489 292.723L-18.5657 292.908L-20.4996 293H-22.3497L-24.1156 292.908L-25.7964 292.723L-27.3917 292.447L-28.9009 292.079L-30.3235 291.619L-31.6589 291.068L-32.9066 290.425L-34.0663 289.692L-35.1374 288.869L-36.1197 287.957L-37.0128 286.955L-37.8163 285.865L-38.53 284.687L-39.1537 283.423L-39.687 282.072L-40.1298 280.636L-40.482 279.115L-40.7435 277.511L-40.914 275.825L-40.9937 274.057L-40.9823 272.209L-40.8801 270.282L-40.6869 268.277L-40.4029 266.195L-40.0281 264.038L-39.5627 261.807L-39.0069 259.504L-38.3608 257.129L-37.6248 254.685L-36.7989 252.173L-35.8836 249.595L-34.8792 246.952L-33.7859 244.245L-32.6043 241.478L-31.3347 238.65L-29.9776 235.765L-28.5335 232.823L-27.0028 229.828L-25.3861 226.78L-23.6841 223.682L-21.8972 220.535L-20.0261 217.342L-18.0716 214.104L-16.0342 210.824L-13.9148 207.504L-11.714 204.145L-9.43272 200.75L-7.07166 197.322L-4.6317 193.861L-2.1137 190.371L0.481435 186.854L3.15279 183.312L5.89941 179.746L8.72033 176.16L11.6145 172.555L14.581 168.935L17.6187 165.3L20.7265 161.654L23.9033 157.999L27.148 154.336L30.4595 150.669L33.8365 147L37.2779 143.331L40.7825 139.664L44.3489 136.001L47.976 132.346L51.6624 128.7L55.4068 125.065L59.208 121.445L63.0645 117.84L66.975 114.254L70.938 110.688L74.9523 107.146L79.0163 103.629L83.1287 100.139L87.2879 96.6782L91.4924 93.2496L95.7409 89.8549L100.032 86.4964L104.363 83.1761L108.734 79.896L113.143 76.6584L117.588 73.4652L122.067 70.3184L126.58 67.2201L131.124 64.1722L135.698 61.1766L140.3 58.2352L144.928 55.3498L149.582 52.5224L154.258 49.7546L158.956 47.0482L163.675 44.405L168.411 41.8266L173.164 39.3146L177.932 36.8706L182.712 34.4962L187.505 32.1928L192.307 29.962L197.117 27.8051L201.934 25.7234L206.755 23.7184L211.579 21.7912L216.405 19.9431L221.23 18.1753L226.052 16.4888L230.871 14.8848L235.684 13.3642L240.49 11.9281L245.286 10.5772L250.072 9.31251L254.846 8.13478L259.605 7.04477L264.349 6.04315L269.075 5.13057L273.781 4.30759L278.467 3.57474L283.13 2.93248L287.77 2.38121L292.383 1.92129L296.969 1.55301L301.525 1.27659L306.051 1.09222L310.544 1H315.004L319.428 1.09222L323.815 1.27659L328.163 1.55301L332.471 1.92129L336.738 2.38121L340.961 2.93248L345.139 3.57474L349.271 4.30759L353.356 5.13057L357.391 6.04315L361.375 7.04477L365.308 8.13478L369.187 9.31251L373.012 10.5772L376.78 11.9281L380.491 13.3642L384.143 14.8848L387.735 16.4888L391.265 18.1753L394.733 19.9431L398.137 21.7912L401.476 23.7184L404.749 25.7234L407.955 27.8051L411.091 29.962L414.158 32.1928L417.155 34.4962L420.079 36.8706L422.931 39.3146L425.709 41.8266L428.412 44.405L431.039 47.0482L433.589 49.7546L436.062 52.5224L438.456 55.3498L440.771 58.2352L443.005 61.1766L445.159 64.1722L447.23 67.2201L449.22 70.3184L451.126 73.4652L452.948 76.6584L454.685 79.896L456.338 83.1761L457.904 86.4964L459.385 89.8549L460.778 93.2496L462.085 96.6782L463.303 100.139L464.433 103.629L465.475 107.146L466.427 110.688L467.291 114.254L468.064 117.84L468.748 121.445L469.342 125.065L469.845 128.7L470.257 132.346L470.579 136.001L470.81 139.664L470.951 143.331L471 147Z" stroke="url(#paint0_linear_1_106)" stroke-opacity="0.2"/>
<defs>
<linearGradient id="paint0_linear_1_106" x1="215" y1="1" x2="215" y2="293" gradientUnits="userSpaceOnUse">
<stop stop-color="#FFFBDA"/>
<stop offset="1" stop-color="#FFFBDA" stop-opacity="0"/>
</linearGradient>
</defs>
</svg>
