<svg width="100%" height="100%" viewBox="0 0 337 202" fill="none" preserveAspectRatio="none" xmlns="http://www.w3.org/2000/svg">
<path fill-rule="evenodd" clip-rule="evenodd" d="M336 101L335.973 103.513L335.886 106.025L335.74 108.533L335.534 111.037L335.269 113.534L334.945 116.024L334.562 118.504L334.119 120.973L333.618 123.429L333.058 125.871L332.44 128.297L331.763 130.706L331.029 133.097L330.236 135.467L329.386 137.815L328.479 140.14L327.516 142.441L326.495 144.715L325.419 146.962L324.287 149.179L323.099 151.366L321.857 153.522L320.56 155.644L319.209 157.731L317.804 159.783L316.347 161.798L314.836 163.774L313.274 165.711L311.661 167.606L309.996 169.46L308.282 171.271L306.517 173.037L304.704 174.757L302.842 176.431L300.933 178.057L298.976 179.635L296.973 181.163L294.925 182.64L292.831 184.066L290.694 185.439L288.512 186.759L286.289 188.025L284.023 189.236L281.717 190.391L279.37 191.49L276.984 192.531L274.559 193.515L272.096 194.44L269.597 195.306L267.062 196.113L264.492 196.86L261.887 197.546L259.25 198.171L256.58 198.735L253.879 199.236L251.148 199.676L248.387 200.054L245.598 200.369L242.782 200.621L239.939 200.811L237.07 200.937L234.178 201H231.262L228.324 200.937L225.364 200.811L222.384 200.621L219.386 200.369L216.369 200.054L213.335 199.676L210.285 199.236L207.22 198.735L204.142 198.171L201.05 197.546L197.948 196.86L194.835 196.113L191.712 195.306L188.581 194.44L185.443 193.515L182.299 192.531L179.151 191.49L175.998 190.391L172.843 189.236L169.686 188.025L166.529 186.759L163.372 185.439L160.217 184.066L157.066 182.64L153.918 181.163L150.775 179.635L147.639 178.057L144.51 176.431L141.39 174.757L138.279 173.037L135.179 171.271L132.091 169.46L129.016 167.606L125.955 165.711L122.909 163.774L119.879 161.798L116.867 159.783L113.872 157.731L110.898 155.644L107.943 153.522L105.01 151.366L102.1 149.179L99.2135 146.962L96.3514 144.715L93.515 142.441L90.7053 140.14L87.9231 137.815L85.1697 135.467L82.4458 133.097L79.7524 130.706L77.0907 128.297L74.4614 125.871L71.8655 123.429L69.3039 120.973L66.7776 118.504L64.2874 116.024L61.8343 113.534L59.419 111.037L57.0425 108.533L54.7056 106.025L52.4092 103.513L50.1539 101L47.9408 98.4868L45.7704 95.9752L43.6437 93.4667L41.5613 90.963L39.5241 88.4657L37.5326 85.9762L35.5877 83.4963L33.69 81.0274L31.8402 78.5711L30.039 76.129L28.2869 73.7027L26.5847 71.2935L24.9329 68.9031L23.3321 66.533L21.7829 64.1846L20.2858 61.8595L18.8414 59.5592L17.4501 57.285L16.1125 55.0384L14.8291 52.8208L13.6002 50.6337L12.4264 48.4784L11.308 46.3562L10.2455 44.2686L9.23925 42.2168L8.28955 40.2022L7.39677 38.2259L6.56123 36.2893L5.78323 34.3936L5.06304 32.5399L4.40092 30.7295L3.7971 28.9634L3.2518 27.2429L2.76521 25.5689L2.33751 23.9426L1.96884 22.3649L1.65934 20.837L1.40912 19.3596L1.21826 17.9339L1.08684 16.5605L1.0149 15.2406L1.00247 13.9748L1.04955 12.7639L1.15612 11.6088L1.32215 10.5101L1.54757 9.46866L1.83232 8.48497L2.17628 7.55973L2.57933 6.6935L3.04134 5.88684L3.56213 5.14025L4.14152 4.45421L4.77931 3.82915L5.47527 3.26547L6.22915 2.76352L7.04068 2.32361L7.90958 1.94604L8.83554 1.63102L9.81823 1.37877L10.8573 1.18945L11.9524 1.06316L13.1031 1H14.309L15.5697 1.06316L16.8847 1.18945L18.2536 1.37877L19.6758 1.63102L21.151 1.94604L22.6785 2.32361L24.2578 2.76352L25.8884 3.26547L27.5696 3.82915L29.3009 4.45421L31.0817 5.14025L32.9113 5.88684L34.789 6.6935L36.7143 7.55973L38.6864 8.48497L40.7046 9.46866L42.7682 10.5101L44.8765 11.6088L47.0287 12.7639L49.2241 13.9748L51.4618 15.2406L53.7411 16.5605L56.0612 17.9339L58.4213 19.3596L60.8204 20.837L63.2579 22.3649L65.7327 23.9426L68.244 25.5689L70.7909 27.2429L73.3726 28.9634L75.9881 30.7295L78.6364 32.5399L81.3166 34.3936L84.0279 36.2893L86.7691 38.2259L89.5394 40.2022L92.3377 42.2168L95.1631 44.2686L98.0146 46.3562L100.891 48.4784L103.792 50.6337L106.715 52.8208L109.661 55.0384L112.627 57.285L115.613 59.5592L118.618 61.8595L121.641 64.1846L124.68 66.533L127.735 68.9031L130.805 71.2935L133.887 73.7027L136.983 76.129L140.089 78.5711L143.205 81.0274L146.331 83.4963L149.464 85.9762L152.604 88.4657L155.75 90.963L158.9 93.4667L162.054 95.9752L165.21 98.4868L168.367 101L171.524 103.513L174.68 106.025L177.834 108.533L180.984 111.037L184.13 113.534L187.271 116.024L190.405 118.504L193.531 120.973L196.648 123.429L199.755 125.871L202.851 128.297L205.935 130.706L209.006 133.097L212.062 135.467L215.103 137.815L218.127 140.14L221.134 142.441L224.121 144.715L227.09 146.962L230.037 149.179L232.962 151.366L235.865 153.522L238.743 155.644L241.597 157.731L244.425 159.783L247.225 161.798L249.998 163.774L252.742 165.711L255.455 167.606L258.138 169.46L260.789 171.271L263.408 173.037L265.992 174.757L268.542 176.431L271.057 178.057L273.534 179.635L275.975 181.163L278.378 182.64L280.741 184.066L283.064 185.439L285.347 186.759L287.589 188.025L289.787 189.236L291.943 190.391L294.055 191.49L296.123 192.531L298.145 193.515L300.121 194.44L302.05 195.306L303.932 196.113L305.766 196.86L307.551 197.546L309.286 198.171L310.972 198.735L312.606 199.236L314.19 199.676L315.722 200.054L317.202 200.369L318.628 200.621L320.002 200.811L321.321 200.937L322.587 201H323.797L324.953 200.937L326.052 200.811L327.096 200.621L328.084 200.369L329.014 200.054L329.888 199.676L330.705 199.236L331.463 198.735L332.164 198.171L332.807 197.546L333.391 196.86L333.917 196.113L334.384 195.306L334.792 194.44L335.141 193.515L335.431 192.531L335.661 191.49L335.832 190.391L335.944 189.236L335.996 188.025L335.988 186.759L335.922 185.439L335.795 184.066L335.609 182.64L335.364 181.163L335.06 179.635L334.696 178.057L334.273 176.431L333.792 174.757L333.251 173.037L332.652 171.271L331.995 169.46L331.28 167.606L330.507 165.711L329.676 163.774L328.788 161.798L327.843 159.783L326.842 157.731L325.784 155.644L324.67 153.522L323.501 151.366L322.277 149.179L320.998 146.962L319.665 144.715L318.278 142.441L316.838 140.14L315.346 137.815L313.801 135.467L312.204 133.097L310.557 130.706L308.859 128.297L307.111 125.871L305.314 123.429L303.468 120.973L301.574 118.504L299.634 116.024L297.646 113.534L295.613 111.037L293.534 108.533L291.411 106.025L289.244 103.513L287.035 101L284.783 98.4868L282.49 95.9752L280.156 93.4667L277.783 90.963L275.371 88.4657L272.921 85.9762L270.434 83.4963L267.911 81.0274L265.352 78.5711L262.759 76.129L260.133 73.7027L257.474 71.2935L254.783 68.9031L252.062 66.533L249.311 64.1846L246.531 61.8595L243.723 59.5592L240.889 57.285L238.029 55.0384L235.145 52.8208L232.236 50.6337L229.305 48.4784L226.353 46.3562L223.38 44.2686L220.387 42.2168L217.376 40.2022L214.348 38.2259L211.303 36.2893L208.243 34.3936L205.169 32.5399L202.082 30.7295L198.983 28.9634L195.873 27.2429L192.754 25.5689L189.626 23.9426L186.49 22.3649L183.348 20.837L180.201 19.3596L177.049 17.9339L173.895 16.5605L170.738 15.2406L167.581 13.9748L164.424 12.7639L161.269 11.6088L158.116 10.5101L154.967 9.46866L151.822 8.48497L148.684 7.55973L145.552 6.6935L142.429 5.88684L139.315 5.14025L136.211 4.45421L133.119 3.82915L130.04 3.26547L126.974 2.76352L123.922 2.32361L120.887 1.94604L117.869 1.63102L114.868 1.37877L111.887 1.18945L108.926 1.06316L105.986 1H103.068L100.173 1.06316L97.3027 1.18945L94.4576 1.37877L91.6388 1.63102L88.8474 1.94604L86.0842 2.32361L83.3504 2.76352L80.6468 3.26547L77.9744 3.82915L75.3341 4.45421L72.727 5.14025L70.1539 5.88684L67.6157 6.6935L65.1134 7.55973L62.6478 8.48497L60.2198 9.46866L57.8303 10.5101L55.4801 11.6088L53.1701 12.7639L50.901 13.9748L48.6738 15.2406L46.4891 16.5605L44.3477 17.9339L42.2505 19.3596L40.1981 20.837L38.1913 22.3649L36.2308 23.9426L34.3173 25.5689L32.4515 27.2429L30.634 28.9634L28.8654 30.7295L27.1465 32.5399L25.4779 34.3936L23.86 36.2893L22.2935 38.2259L20.779 40.2022L19.317 42.2168L17.9079 44.2686L16.5524 46.3562L15.2508 48.4784L14.0037 50.6337L12.8115 52.8208L11.6747 55.0384L10.5935 57.285L9.56841 59.5592L8.59981 61.8595L7.68802 64.1846L6.83337 66.533L6.03615 68.9031L5.29666 71.2935L4.61516 73.7027L3.99188 76.129L3.42705 78.5711L2.92087 81.0274L2.47352 83.4963L2.08516 85.9762L1.75592 88.4657L1.48593 90.963L1.27528 93.4667L1.12404 95.9752L1.03227 98.4868L1 101L1.02724 103.513L1.11399 106.025L1.2602 108.533L1.46584 111.037L1.73082 113.534L2.05505 116.024L2.43842 118.504L2.8808 120.973L3.38201 123.429L3.94189 125.871L4.56024 128.297L5.23683 130.706L5.97144 133.097L6.76378 135.467L7.61359 137.815L8.52057 140.14L9.48438 142.441L10.5047 144.715L11.5811 146.962L12.7133 149.179L13.9009 151.366L15.1434 153.522L16.4403 155.644L17.7913 157.731L19.1959 159.783L20.6534 161.798L22.1635 163.774L23.7257 165.711L25.3392 167.606L27.0036 169.46L28.7183 171.271L30.4826 173.037L32.296 174.757L34.1578 176.431L36.0673 178.057L38.0238 179.635L40.0268 181.163L42.0753 182.64L44.1688 184.066L46.3064 185.439L48.4875 186.759L50.7112 188.025L52.9768 189.236L55.2834 190.391L57.6302 191.49L60.0164 192.531L62.4412 193.515L64.9036 194.44L67.4029 195.306L69.9381 196.113L72.5083 196.86L75.1125 197.546L77.75 198.171L80.4197 198.735L83.1208 199.236L85.8521 199.676L88.6128 200.054L91.4019 200.369L94.2184 200.621L97.0613 200.811L99.9295 200.937L102.822 201H105.738L108.676 200.937L111.636 200.811L114.616 200.621L117.614 200.369L120.631 200.054L123.665 199.676L126.715 199.236L129.78 198.735L132.858 198.171L135.95 197.546L139.052 196.86L142.165 196.113L145.288 195.306L148.419 194.44L151.557 193.515L154.701 192.531L157.849 191.49L161.002 190.391L164.157 189.236L167.314 188.025L170.471 186.759L173.628 185.439L176.783 184.066L179.934 182.64L183.082 181.163L186.225 179.635L189.361 178.057L192.49 176.431L195.61 174.757L198.721 173.037L201.821 171.271L204.909 169.46L207.984 167.606L211.045 165.711L214.091 163.774L217.121 161.798L220.134 159.783L223.128 157.731L226.102 155.644L229.057 153.522L231.99 151.366L234.9 149.179L237.787 146.962L240.649 144.715L243.485 142.441L246.295 140.14L249.077 137.815L251.83 135.467L254.554 133.097L257.248 130.706L259.909 128.297L262.539 125.871L265.135 123.429L267.696 120.973L270.222 118.504L272.713 116.024L275.166 113.534L277.581 111.037L279.957 108.533L282.294 106.025L284.591 103.513L286.846 101L289.059 98.4868L291.23 95.9752L293.356 93.4667L295.439 90.963L297.476 88.4657L299.467 85.9762L301.412 83.4963L303.31 81.0274L305.16 78.5711L306.961 76.129L308.713 73.7027L310.415 71.2935L312.067 68.9031L313.668 66.533L315.217 64.1846L316.714 61.8595L318.159 59.5592L319.55 57.285L320.887 55.0384L322.171 52.8208L323.4 50.6337L324.574 48.4784L325.692 46.3562L326.754 44.2686L327.761 42.2168L328.71 40.2022L329.603 38.2259L330.439 36.2893L331.217 34.3936L331.937 32.5399L332.599 30.7295L333.203 28.9634L333.748 27.2429L334.235 25.5689L334.663 23.9426L335.031 22.3649L335.341 20.837L335.591 19.3596L335.782 17.9339L335.913 16.5605L335.985 15.2406L335.998 13.9748L335.95 12.7639L335.844 11.6088L335.678 10.5101L335.452 9.46866L335.168 8.48497L334.824 7.55973L334.421 6.6935L333.959 5.88684L333.438 5.14025L332.858 4.45421L332.221 3.82915L331.525 3.26547L330.771 2.76352L329.959 2.32361L329.09 1.94604L328.164 1.63102L327.182 1.37877L326.143 1.18945L325.048 1.06316L323.897 1H322.691L321.43 1.06316L320.115 1.18945L318.746 1.37877L317.324 1.63102L315.849 1.94604L314.322 2.32361L312.742 2.76352L311.112 3.26547L309.43 3.82915L307.699 4.45421L305.918 5.14025L304.089 5.88684L302.211 6.6935L300.286 7.55973L298.314 8.48497L296.295 9.46866L294.232 10.5101L292.124 11.6088L289.971 12.7639L287.776 13.9748L285.538 15.2406L283.259 16.5605L280.939 17.9339L278.579 19.3596L276.18 20.837L273.742 22.3649L271.267 23.9426L268.756 25.5689L266.209 27.2429L263.627 28.9634L261.012 30.7295L258.364 32.5399L255.683 34.3936L252.972 36.2893L250.231 38.2259L247.461 40.2022L244.662 42.2168L241.837 44.2686L238.985 46.3562L236.109 48.4784L233.208 50.6337L230.285 52.8208L227.339 55.0384L224.373 57.285L221.387 59.5592L218.382 61.8595L215.359 64.1846L212.32 66.533L209.265 68.9031L206.195 71.2935L203.113 73.7027L200.017 76.129L196.911 78.5711L193.795 81.0274L190.669 83.4963L187.536 85.9762L184.396 88.4657L181.25 90.963L178.1 93.4667L174.946 95.9752L171.79 98.4868L168.633 101L165.476 103.513L162.32 106.025L159.166 108.533L156.016 111.037L152.87 113.534L149.729 116.024L146.595 118.504L143.469 120.973L140.352 123.429L137.245 125.871L134.149 128.297L131.065 130.706L127.994 133.097L124.938 135.467L121.897 137.815L118.873 140.14L115.866 142.441L112.879 144.715L109.91 146.962L106.963 149.179L104.038 151.366L101.135 153.522L98.2567 155.644L95.4031 157.731L92.5754 159.783L89.7748 161.798L87.0021 163.774L84.2583 165.711L81.5445 167.606L78.8616 169.46L76.2106 171.271L73.5923 173.037L71.0077 174.757L68.4578 176.431L65.9435 178.057L63.4655 179.635L61.0249 181.163L58.6225 182.64L56.2591 184.066L53.9356 185.439L51.6528 186.759L49.4115 188.025L47.2125 189.236L45.0566 190.391L42.9446 191.49L40.8772 192.531L38.8551 193.515L36.8791 194.44L34.9499 195.306L33.0681 196.113L31.2344 196.86L29.4495 197.546L27.714 198.171L26.0285 198.735L24.3936 199.236L22.8099 199.676L21.278 200.054L19.7984 200.369L18.3717 200.621L16.9983 200.811L15.6787 200.937L14.4134 201H13.2028L12.0474 200.937L10.9477 200.811L9.90384 200.621L8.91638 200.369L7.98562 200.054L7.11188 199.676L6.29549 199.236L5.53673 198.735L4.83587 198.171L4.19315 197.546L3.60882 196.86L3.08307 196.113L2.61609 195.306L2.20805 194.44L1.85909 193.515L1.56934 192.531L1.3389 191.49L1.16785 190.391L1.05625 189.236L1.00414 188.025L1.01155 186.759L1.07846 185.439L1.20486 184.066L1.39069 182.64L1.6359 181.163L1.9404 179.635L2.30407 178.057L2.72679 176.431L3.20841 174.757L3.74876 173.037L4.34764 171.271L5.00485 169.46L5.72014 167.606L6.49327 165.711L7.32396 163.774L8.21191 161.798L9.15682 159.783L10.1583 157.731L11.2161 155.644L12.3298 153.522L13.4989 151.366L14.7231 149.179L16.002 146.962L17.335 144.715L18.7218 142.441L20.1617 140.14L21.6544 137.815L23.1992 135.467L24.7957 133.097L26.4432 130.706L28.1412 128.297L29.889 125.871L31.6861 123.429L33.5319 120.973L35.4255 118.504L37.3665 116.024L39.354 113.534L41.3874 111.037L43.466 108.533L45.589 106.025L47.7557 103.513L49.9653 101L52.217 98.4868L54.51 95.9752L56.8435 93.4667L59.2167 90.963L61.6287 88.4657L64.0787 85.9762L66.5658 83.4963L69.0891 81.0274L71.6477 78.5711L74.2407 76.129L76.8672 73.7027L79.5263 71.2935L82.217 68.9031L84.9383 66.533L87.6894 64.1846L90.4691 61.8595L93.2766 59.5592L96.1108 57.285L98.9707 55.0384L101.855 52.8208L104.764 50.6337L107.695 48.4784L110.647 46.3562L113.62 44.2686L116.613 42.2168L119.624 40.2022L122.652 38.2259L125.697 36.2893L128.757 34.3936L131.831 32.5399L134.918 30.7295L138.017 28.9634L141.127 27.2429L144.246 25.5689L147.374 23.9426L150.51 22.3649L153.652 20.837L156.799 19.3596L159.951 17.9339L163.105 16.5605L166.262 15.2406L169.419 13.9748L172.576 12.7639L175.731 11.6088L178.884 10.5101L182.033 9.46866L185.178 8.48497L188.316 7.55973L191.448 6.6935L194.571 5.88684L197.685 5.14025L200.789 4.45421L203.881 3.82915L206.96 3.26547L210.026 2.76352L213.078 2.32361L216.113 1.94604L219.131 1.63102L222.132 1.37877L225.113 1.18945L228.074 1.06316L231.014 1H233.932L236.827 1.06316L239.697 1.18945L242.542 1.37877L245.361 1.63102L248.153 1.94604L250.916 2.32361L253.65 2.76352L256.353 3.26547L259.026 3.82915L261.666 4.45421L264.273 5.14025L266.846 5.88684L269.384 6.6935L271.887 7.55973L274.352 8.48497L276.78 9.46866L279.17 10.5101L281.52 11.6088L283.83 12.7639L286.099 13.9748L288.326 15.2406L290.511 16.5605L292.652 17.9339L294.75 19.3596L296.802 20.837L298.809 22.3649L300.769 23.9426L302.683 25.5689L304.549 27.2429L306.366 28.9634L308.135 30.7295L309.853 32.5399L311.522 34.3936L313.14 36.2893L314.706 38.2259L316.221 40.2022L317.683 42.2168L319.092 44.2686L320.448 46.3562L321.749 48.4784L322.996 50.6337L324.188 52.8208L325.325 55.0384L326.407 57.285L327.432 59.5592L328.4 61.8595L329.312 64.1846L330.167 66.533L330.964 68.9031L331.703 71.2935L332.385 73.7027L333.008 76.129L333.573 78.5711L334.079 81.0274L334.526 83.4963L334.915 85.9762L335.244 88.4657L335.514 90.963L335.725 93.4667L335.876 95.9752L335.968 98.4868L336 101Z" stroke="#FFFBDA" stroke-opacity="0.3"/>
</svg>
