<svg width="100%" height="100%" viewBox="0 0 374 259" fill="none" preserveAspectRatio="none" xmlns="http://www.w3.org/2000/svg"> 
<path fill-rule="evenodd" clip-rule="evenodd" d="M0.999993 129.5L1.03028 125.464L1.12661 121.431L1.28899 117.407L1.51729 113.395L1.81152 109.398L2.17159 105.421L2.59728 101.469L3.08851 97.5433L3.64516 93.6496L4.26683 89.7913L4.95346 85.9722L5.70479 82.196L6.52054 78.4665L7.40041 74.7874L8.34406 71.1622L9.35125 67.5946L10.4215 64.0882L11.5545 60.6463L12.7498 57.2723L14.0071 53.9696L15.3258 50.7414L16.7055 47.591L18.1457 44.5214L19.6459 41.5357L21.2056 38.6368L22.8242 35.8275L24.501 33.1107L26.2357 30.489L28.0274 27.9651L29.8757 25.5413L31.7797 23.2202L33.7389 21.0039L35.7526 18.8947L37.82 16.8946L39.9404 15.0057L42.113 13.2297L44.3372 11.5685L46.612 10.0237L48.9367 8.59682L51.3105 7.28923L53.7325 6.10224L56.2017 5.03707L58.7175 4.09472L61.2789 3.2761L63.8849 2.58204L66.5347 2.01328L69.2273 1.57029L71.9617 1.25357L74.737 1.06342L77.5521 1.00001L80.4062 1.06342L83.2981 1.25357L86.2269 1.57029L89.1915 2.01328L92.1908 2.58204L95.2239 3.2761L98.2895 4.09472L101.387 5.03707L104.514 6.10225L107.671 7.28923L110.856 8.59683L114.068 10.0237L117.306 11.5685L120.569 13.2297L123.855 15.0057L127.164 16.8946L130.494 18.8947L133.844 21.0039L137.214 23.2202L140.6 25.5413L144.003 27.9651L147.422 30.489L150.855 33.1107L154.3 35.8275L157.757 38.6368L161.224 41.5357L164.701 44.5214L168.185 47.591L171.677 50.7415L175.173 53.9696L178.674 57.2723L182.178 60.6463L185.683 64.0882L189.189 67.5947L192.694 71.1622L196.198 74.7874L199.697 78.4665L203.193 82.196L206.682 85.9722L210.165 89.7913L213.639 93.6497L217.104 97.5434L220.559 101.469L224.001 105.422L227.43 109.398L230.845 113.395L234.244 117.407L237.627 121.431L240.991 125.464L244.336 129.5L247.661 133.536L250.965 137.569L254.245 141.593L257.502 145.605L260.734 149.602L263.939 153.578L267.117 157.531L270.267 161.457L273.387 165.35L276.476 169.209L279.534 173.028L282.559 176.804L285.55 180.534L288.505 184.213L291.425 187.838L294.308 191.405L297.152 194.912L299.957 198.354L302.723 201.728L305.447 205.03L308.129 208.259L310.768 211.409L313.363 214.479L315.913 217.464L318.417 220.363L320.875 223.172L323.285 225.889L325.646 228.511L327.959 231.035L330.221 233.459L332.432 235.78L334.592 237.996L336.699 240.105L338.754 242.105L340.754 243.994L342.699 245.77L344.59 247.431L346.424 248.976L348.201 250.403L349.922 251.711L351.584 252.898L353.188 253.963L354.733 254.905L356.218 255.724L357.644 256.418L359.008 256.987L360.312 257.43L361.553 257.746L362.733 257.937L363.851 258L364.905 257.937L365.897 257.746L366.825 257.43L367.688 256.987L368.488 256.418L369.223 255.724L369.894 254.905L370.499 253.963L371.04 252.898L371.515 251.711L371.924 250.403L372.268 248.976L372.546 247.431L372.758 245.77L372.904 243.994L372.983 242.105L372.997 240.105L372.945 237.996L372.827 235.78L372.642 233.459L372.392 231.035L372.076 228.511L371.694 225.889L371.246 223.172L370.733 220.363L370.155 217.464L369.512 214.479L368.803 211.409L368.03 208.259L367.193 205.03L366.292 201.728L365.327 198.354L364.299 194.912L363.208 191.405L362.054 187.838L360.838 184.213L359.56 180.534L358.221 176.804L356.821 173.028L355.361 169.209L353.841 165.35L352.261 161.457L350.623 157.531L348.927 153.579L347.173 149.602L345.363 145.605L343.496 141.593L341.573 137.569L339.596 133.536L337.564 129.5L335.479 125.464L333.341 121.431L331.151 117.407L328.91 113.395L326.619 109.398L324.277 105.422L321.888 101.469L319.45 97.5434L316.965 93.6497L314.434 89.7913L311.857 85.9722L309.237 82.196L306.573 78.4665L303.866 74.7874L301.118 71.1622L298.329 67.5947L295.501 64.0882L292.634 60.6463L289.73 57.2723L286.789 53.9696L283.813 50.7415L280.802 47.591L277.758 44.5215L274.682 41.5357L271.574 38.6368L268.437 35.8276L265.27 33.1107L262.076 30.4891L258.855 27.9651L255.609 25.5413L252.338 23.2202L249.044 21.0039L245.728 18.8947L242.391 16.8946L239.035 15.0057L235.66 13.2297L232.267 11.5685L228.859 10.0237L225.435 8.59684L221.998 7.28924L218.549 6.10226L215.088 5.03708L211.618 4.09473L208.138 3.27611L204.652 2.58205L201.159 2.01329L197.66 1.5703L194.158 1.25358L190.654 1.06343L187.148 1.00002L183.642 1.06343L180.138 1.25358L176.635 1.5703L173.137 2.01329L169.643 2.58205L166.156 3.27611L162.676 4.09473L159.204 5.03708L155.743 6.10225L152.293 7.28923L148.855 8.59683L145.43 10.0237L142.02 11.5685L138.626 13.2297L135.25 15.0057L131.892 16.8946L128.553 18.8947L125.235 21.0039L121.939 23.2202L118.667 25.5413L115.418 27.9651L112.195 30.489L108.998 33.1107L105.83 35.8275L102.69 38.6368L99.5798 41.5357L96.5008 44.5214L93.4541 47.591L90.4405 50.7414L87.4613 53.9696L84.5174 57.2723L81.6099 60.6463L78.74 64.0882L75.9084 67.5947L73.1163 71.1622L70.3647 74.7874L67.6546 78.4665L64.9868 82.196L62.3623 85.9722L59.7822 89.7913L57.2473 93.6496L54.7584 97.5433L52.3166 101.469L49.9226 105.421L47.5773 109.398L45.2815 113.395L43.0362 117.407L40.8419 121.431L38.6995 125.464L36.6099 129.5L34.5737 133.536L32.5917 137.569L30.6645 141.593L28.7928 145.605L26.9774 149.602L25.2188 153.578L23.5177 157.531L21.8747 161.457L20.2904 165.35L18.7652 169.209L17.2999 173.028L15.8949 176.804L14.5506 180.533L13.2676 184.213L12.0463 187.838L10.8872 191.405L9.79076 194.912L8.75719 198.354L7.78693 201.728L6.88037 205.03L6.03782 208.259L5.25951 211.409L4.54585 214.479L3.89697 217.464L3.31313 220.363L2.79458 223.172L2.34146 225.889L1.95399 228.511L1.63221 231.035L1.37636 233.459L1.18639 235.78L1.06247 237.996L1.00459 240.105L1.0128 242.105L1.08713 243.994L1.22746 245.77L1.43384 247.431L1.70611 248.976L2.04426 250.403L2.44811 251.711L2.91753 252.898L3.45229 253.963L4.05235 254.905L4.7174 255.724L5.44717 256.418L6.24146 256.987L7.10003 257.43L8.02242 257.746L9.00843 257.937L10.0577 258L11.1699 257.937L12.3444 257.746L13.5811 257.43L14.8794 256.987L16.2388 256.418L17.6589 255.724L19.1392 254.905L20.6791 253.963L22.2781 252.898L23.9356 251.711L25.6511 250.403L27.4238 248.976L29.2533 247.431L31.1389 245.77L33.0798 243.994L35.0753 242.105L37.1249 240.105L39.2278 237.996L41.3831 235.78L43.5901 233.459L45.8481 231.035L48.1563 228.511L50.5138 225.889L52.9198 223.172L55.3734 220.363L57.8738 217.464L60.4201 214.479L63.0113 211.409L65.6466 208.259L68.325 205.03L71.0456 201.728L73.8074 198.354L76.6093 194.912L79.4505 191.405L82.33 187.838L85.2466 184.213L88.1994 180.533L91.1872 176.804L94.2091 173.028L97.264 169.209L100.351 165.35L103.468 161.457L106.616 157.531L109.791 153.578L112.995 149.602L116.224 145.605L119.479 141.593L122.757 137.569L126.059 133.536L129.382 129.5L132.726 125.464L136.088 121.431L139.469 117.407L142.867 113.395L146.281 109.398L149.709 105.422L153.15 101.469L156.603 97.5434L160.067 93.6496L163.541 89.7913L167.023 85.9722L170.512 82.196L174.007 78.4665L177.507 74.7874L181.01 71.1622L184.515 67.5947L188.021 64.0882L191.526 60.6463L195.03 57.2723L198.531 53.9696L202.028 50.7415L205.52 47.591L209.005 44.5214L212.482 41.5357L215.951 38.6368L219.408 35.8276L222.855 33.1107L226.289 30.4891L229.708 27.9651L233.113 25.5413L236.501 23.2202L239.872 21.0039L243.223 18.8947L246.555 16.8946L249.866 15.0057L253.154 13.2297L256.419 11.5685L259.659 10.0237L262.874 8.59684L266.061 7.28924L269.22 6.10226L272.35 5.03709L275.45 4.09474L278.518 3.27612L281.554 2.58206L284.556 2.0133L287.524 1.57031L290.456 1.25359L293.351 1.06344L296.208 1.00003L299.027 1.06344L301.805 1.25359L304.543 1.57031L307.24 2.0133L309.893 2.58206L312.503 3.27612L315.068 4.09474L317.588 5.03709L320.061 6.10227L322.487 7.28925L324.865 8.59685L327.194 10.0238L329.473 11.5685L331.701 13.2297L333.878 15.0057L336.003 16.8946L338.075 18.8947L340.093 21.0039L342.057 23.2202L343.966 25.5413L345.819 27.9651L347.615 30.4891L349.355 33.1107L351.036 35.8276L352.66 38.6368L354.225 41.5357L355.73 44.5215L357.175 47.591L358.56 50.7415L359.884 53.9696L361.146 57.2723L362.347 60.6463L363.485 64.0882L364.561 67.5947L365.573 71.1623L366.522 74.7874L367.408 78.4665L368.229 82.196L368.986 85.9722L369.678 89.7913L370.305 93.6497L370.867 97.5434L371.364 101.469L371.795 105.422L372.161 109.398L372.46 113.395L372.694 117.407L372.862 121.431L372.964 125.464L373 129.5L372.97 133.536L372.873 137.569L372.711 141.593L372.483 145.605L372.188 149.602L371.828 153.579L371.403 157.531L370.911 161.457L370.355 165.35L369.733 169.209L369.047 173.028L368.295 176.804L367.479 180.534L366.6 184.213L365.656 187.838L364.649 191.405L363.579 194.912L362.446 198.354L361.25 201.728L359.993 205.03L358.674 208.259L357.295 211.409L355.854 214.479L354.354 217.464L352.794 220.363L351.176 223.172L349.499 225.889L347.764 228.511L345.973 231.035L344.124 233.459L342.22 235.78L340.261 237.996L338.247 240.105L336.18 242.105L334.06 243.994L331.887 245.77L329.663 247.431L327.388 248.976L325.063 250.403L322.69 251.711L320.268 252.898L317.798 253.963L315.283 254.905L312.721 255.724L310.115 256.418L307.465 256.987L304.773 257.43L302.038 257.746L299.263 257.937L296.448 258L293.594 257.937L290.702 257.746L287.773 257.43L284.809 256.987L281.809 256.418L278.776 255.724L275.711 254.905L272.613 253.963L269.486 252.898L266.329 251.711L263.144 250.403L259.932 248.976L256.694 247.431L253.431 245.77L250.145 243.994L246.836 242.105L243.506 240.105L240.156 237.996L236.787 235.78L233.4 233.459L229.997 231.035L226.578 228.511L223.146 225.889L219.7 223.172L216.243 220.363L212.776 217.464L209.299 214.479L205.815 211.409L202.323 208.259L198.827 205.03L195.326 201.728L191.822 198.354L188.317 194.912L184.811 191.405L181.306 187.838L177.802 184.213L174.303 180.534L170.807 176.804L167.318 173.028L163.835 169.209L160.361 165.35L156.896 161.457L153.441 157.531L149.999 153.578L146.57 149.602L143.155 145.605L139.756 141.593L136.373 137.569L133.009 133.536L129.664 129.5L126.339 125.464L123.035 121.431L119.755 117.407L116.498 113.395L113.266 109.398L110.061 105.422L106.883 101.469L103.733 97.5433L100.613 93.6496L97.5236 89.7913L94.466 85.9722L91.4413 82.196L88.4505 78.4665L85.4947 74.7874L82.575 71.1622L79.6924 67.5947L76.8479 64.0882L74.0426 60.6463L71.2774 57.2723L68.5533 53.9696L65.8713 50.7414L63.2323 47.591L60.6373 44.5214L58.0872 41.5357L55.5829 38.6368L53.1253 35.8275L50.7153 33.1107L48.3536 30.489L46.0413 27.9651L43.779 25.5413L41.5675 23.2202L39.4079 21.0039L37.3006 18.8947L35.2465 16.8946L33.2463 15.0057L31.3008 13.2297L29.4105 11.5685L27.5763 10.0237L25.7987 8.59682L24.0783 7.28922L22.4159 6.10224L20.8119 5.03706L19.267 4.09471L17.7817 3.27609L16.3565 2.58203L14.9919 2.01327L13.6884 1.57028L12.4466 1.25357L11.2667 1.06341L10.1493 1L9.09466 1.06341L8.10329 1.25357L7.17547 1.57028L6.31155 2.01327L5.51183 2.58203L4.77655 3.27609L4.10607 4.09471L3.50053 5.03706L2.96022 6.10224L2.48521 7.28922L2.0759 8.59682L1.73219 10.0237L1.4543 11.5685L1.24241 13.2297L1.09645 15.0057L1.01653 16.8946L1.00274 18.8947L1.05507 21.0039L1.17336 23.2201L1.35773 25.5413L1.60808 27.9651L1.92423 30.489L2.30619 33.1107L2.7538 35.8275L3.2668 38.6368L3.84513 41.5357L4.48849 44.5214L5.19673 47.591L5.96956 50.7414L6.80672 53.9696L7.70788 57.2723L8.67275 60.6463L9.70097 64.0882L10.7922 67.5946L11.946 71.1622L13.162 74.7874L14.4398 78.4665L15.7789 82.196L17.1788 85.9722L18.6391 89.7913L20.1592 93.6496L21.7385 97.5433L23.3767 101.469L25.0729 105.421L26.8266 109.398L28.6373 113.395L30.5041 117.407L32.4267 121.431L34.4041 125.464L36.4358 129.5L38.521 133.536L40.6588 137.569L42.8488 141.593L45.0899 145.605L47.3814 149.602L49.7226 153.578L52.1124 157.531L54.5503 161.457L57.0352 165.35L59.5663 169.209L62.1426 173.028L64.7634 176.804L67.4275 180.533L70.1341 184.213L72.8823 187.838L75.6709 191.405L78.4992 194.912L81.366 198.354L84.2703 201.728L87.2112 205.03L90.1875 208.259L93.1981 211.409L96.2421 214.479L99.3184 217.464L102.426 220.363L105.563 223.172L108.73 225.889L111.924 228.511L115.145 231.035L118.391 233.459L121.662 235.78L124.956 237.996L128.272 240.105L131.609 242.105L134.965 243.994L138.341 245.77L141.733 247.431L145.141 248.976L148.565 250.403L152.002 251.711L155.451 252.898L158.912 253.963L162.382 254.905L165.862 255.724L169.348 256.418L172.842 256.987L176.34 257.43L179.842 257.746L183.346 257.937L186.852 258L190.358 257.937L193.862 257.746L197.365 257.43L200.863 256.987L204.357 256.418L207.844 255.724L211.324 254.905L214.796 253.963L218.257 252.898L221.707 251.711L225.146 250.403L228.57 248.976L231.98 247.431L235.374 245.77L238.75 243.994L242.108 242.105L245.447 240.105L248.765 237.996L252.061 235.78L255.333 233.459L258.582 231.035L261.805 228.511L265.002 225.889L268.17 223.172L271.31 220.363L274.42 217.464L277.499 214.479L280.546 211.409L283.559 208.259L286.539 205.03L289.483 201.728L292.39 198.354L295.26 194.912L298.092 191.405L300.884 187.838L303.635 184.213L306.345 180.534L309.013 176.804L311.638 173.028L314.218 169.209L316.753 165.35L319.242 161.457L321.683 157.531L324.077 153.579L326.423 149.602L328.718 145.605L330.964 141.593L333.158 137.569L335.3 133.536L337.39 129.5L339.426 125.464L341.408 121.431L343.336 117.407L345.207 113.395L347.023 109.398L348.781 105.422L350.482 101.469L352.125 97.5434L353.71 93.6497L355.235 89.7913L356.7 85.9722L358.105 82.196L359.449 78.4665L360.732 74.7874L361.954 71.1623L363.113 67.5947L364.209 64.0882L365.243 60.6463L366.213 57.2723L367.12 53.9696L367.962 50.7415L368.74 47.591L369.454 44.5215L370.103 41.5357L370.687 38.6368L371.205 35.8276L371.659 33.1107L372.046 30.4891L372.368 27.9651L372.624 25.5413L372.814 23.2202L372.938 21.0039L372.995 18.8947L372.987 16.8946L372.913 15.0057L372.773 13.2297L372.566 11.5685L372.294 10.0238L371.956 8.59685L371.552 7.28925L371.083 6.10227L370.548 5.0371L369.948 4.09474L369.283 3.27612L368.553 2.58206L367.759 2.0133L366.9 1.57031L365.978 1.2536L364.992 1.06344L363.942 1.00003L362.83 1.06344L361.656 1.2536L360.419 1.57031L359.121 2.0133L357.761 2.58206L356.341 3.27612L354.861 4.09474L353.321 5.03709L351.722 6.10227L350.064 7.28925L348.349 8.59685L346.576 10.0238L344.747 11.5685L342.861 13.2297L340.92 15.0057L338.925 16.8946L336.875 18.8947L334.772 21.0039L332.617 23.2202L330.41 25.5413L328.152 27.9651L325.844 30.4891L323.486 33.1107L321.08 35.8276L318.627 38.6368L316.126 41.5357L313.58 44.5215L310.989 47.591L308.353 50.7415L305.675 53.9696L302.954 57.2723L300.193 60.6463L297.391 64.0882L294.549 67.5947L291.67 71.1622L288.753 74.7874L285.801 78.4665L282.813 82.196L279.791 85.9722L276.736 89.7913L273.649 93.6497L270.532 97.5434L267.384 101.469L264.209 105.422L261.005 109.398L257.776 113.395L254.521 117.407L251.243 121.431L247.941 125.464L244.618 129.5L241.274 133.536L237.912 137.569L234.531 141.593L231.133 145.605L227.719 149.602L224.291 153.578L220.85 157.531L217.397 161.457L213.933 165.35L210.459 169.209L206.977 173.028L203.488 176.804L199.993 180.534L196.493 184.213L192.99 187.838L189.485 191.405L185.979 194.912L182.474 198.354L178.97 201.728L175.469 205.03L171.972 208.259L168.48 211.409L164.995 214.479L161.518 217.464L158.049 220.363L154.592 223.172L151.145 225.889L147.711 228.511L144.292 231.035L140.887 233.459L137.499 235.78L134.128 237.996L130.777 240.105L127.445 242.105L124.134 243.994L120.846 245.77L117.581 247.431L114.341 248.976L111.126 250.403L107.939 251.711L104.78 252.898L101.65 253.963L98.5499 254.905L95.4816 255.724L92.4458 256.418L89.4436 256.987L86.476 257.43L83.5442 257.746L80.649 257.937L77.7918 258L74.9733 257.937L72.1946 257.746L69.4567 257.43L66.7605 256.987L64.1071 256.418L61.4973 255.724L58.9322 254.905L56.4125 253.963L53.9392 252.898L51.5132 251.711L49.1354 250.403L46.8065 248.976L44.5275 247.431L42.299 245.77L40.1219 243.994L37.9971 242.105L35.9252 240.105L33.907 237.996L31.9431 235.78L30.0344 233.459L28.1814 231.035L26.3848 228.511L24.6454 225.889L22.9636 223.172L21.34 220.363L19.7754 217.464L18.2701 214.479L16.8248 211.409L15.44 208.259L14.1161 205.03L12.8536 201.728L11.653 198.354L10.5147 194.912L9.4392 191.405L8.4267 187.838L7.47766 184.213L6.59243 180.533L5.77122 176.804L5.01445 173.028L4.32232 169.209L3.69513 165.35L3.13302 161.457L2.63628 157.531L2.205 153.578L1.83941 149.602L1.5396 145.605L1.30567 141.593L1.13775 137.569L1.03583 133.536L0.999993 129.5Z" stroke="#FFFBDA" stroke-opacity="0.3"/>
</svg>
